<?xml version="1.0" standalone="no"?>
<!DOCTYPE svg PUBLIC "-//W3C//DTD SVG 1.1//EN" "http://www.w3.org/Graphics/SVG/1.1/DTD/svg11.dtd" >
<svg xmlns="http://www.w3.org/2000/svg">
<metadata>
Created by FontForge 20120731 at Thu Jul 27 10:57:35 2017
 By admin
</metadata>
<defs>
<font id="iconfont" horiz-adv-x="1024" >
  <font-face 
    font-family="iconfont"
    font-weight="500"
    font-stretch="normal"
    units-per-em="1024"
    panose-1="2 0 6 3 0 0 0 0 0 0"
    ascent="896"
    descent="-128"
    x-height="792"
    bbox="0 -128 1538.57 896"
    underline-thickness="0"
    underline-position="0"
    unicode-range="U+0078-E678"
  />
<missing-glyph 
 />
    <glyph glyph-name=".notdef" 
 />
    <glyph glyph-name=".notdef" 
 />
    <glyph glyph-name=".null" horiz-adv-x="0" 
 />
    <glyph glyph-name="nonmarkingreturn" horiz-adv-x="341" 
 />
    <glyph glyph-name="x" unicode="x" horiz-adv-x="1001" 
d="M281 543q-27 -1 -53 -1h-83q-18 0 -36.5 -6t-32.5 -18.5t-23 -32t-9 -45.5v-76h912v41q0 16 -0.5 30t-0.5 18q0 13 -5 29t-17 29.5t-31.5 22.5t-49.5 9h-133v-97h-438v97zM955 310v-52q0 -23 0.5 -52t0.5 -58t-10.5 -47.5t-26 -30t-33 -16t-31.5 -4.5q-14 -1 -29.5 -0.5
t-29.5 0.5h-32l-45 128h-439l-44 -128h-29h-34q-20 0 -45 1q-25 0 -41 9.5t-25.5 23t-13.5 29.5t-4 30v167h911zM163 247q-12 0 -21 -8.5t-9 -21.5t9 -21.5t21 -8.5q13 0 22 8.5t9 21.5t-9 21.5t-22 8.5zM316 123q-8 -26 -14 -48q-5 -19 -10.5 -37t-7.5 -25t-3 -15t1 -14.5
t9.5 -10.5t21.5 -4h37h67h81h80h64h36q23 0 34 12t2 38q-5 13 -9.5 30.5t-9.5 34.5q-5 19 -11 39h-368zM336 498v228q0 11 2.5 23t10 21.5t20.5 15.5t34 6h188q31 0 51.5 -14.5t20.5 -52.5v-227h-327z" />
    <glyph glyph-name="date" unicode="&#xe627;" horiz-adv-x="1028" 
d="M368 276h-147v147h147v-147v0zM590 423h-147v-147h147v147zM812 423h-147v-147h147v147zM368 208h-147v-147h147v147v0zM590 208h-147v-147h147v147zM812 208h-147v-147h147v147zM867 720q0 -19 -13.5 -32.5t-32 -13.5t-32 13.5t-13.5 32.5v114q0 18 13.5 31.5t32 13.5
t32 -13.5t13.5 -31.5v-114zM254 834q0 19 -13 32t-32 13t-32 -13t-13 -32v-114q0 -19 13 -32.5t32 -13.5t32 13.5t13 32.5v114zM921 768v-47q0 -41 -29 -70.5t-70.5 -29.5t-71 29.5t-29.5 70.5v47h-412v-47q0 -41 -29.5 -70.5t-71 -29.5t-70.5 29.5t-29 70.5v47h-109v-896
h1028v896h-107v0zM928 -28h-828v555h828v-555z" />
    <glyph glyph-name="media-library" unicode="&#xe660;" horiz-adv-x="1137" 
d="M0 440q0 48 33.5 81.5t79.5 33.5h912q46 0 79.5 -33.5t33.5 -81.5v-454q0 -47 -33.5 -80.5t-79.5 -33.5h-912q-47 0 -80 33.5t-33 80.5v454v0zM664 269l-102 48q-29 14 -49 1.5t-20 -44.5v-76q0 -31 20 -44t49 1l102 49q28 13 28 32t-28 33zM59 640q0 12 8.5 20t19.5 8
h964q12 0 20.5 -8t8.5 -20t-8.5 -20t-20.5 -8h-964q-11 0 -19.5 8t-8.5 20zM123 754v0q0 12 8 20t20 8v0h836q12 0 20.5 -8.5t8.5 -19.5v0q0 -12 -8.5 -20.5t-20.5 -8.5v0h-836q-11 0 -19.5 8.5t-8.5 20.5v0zM186.5 867.5q-0.5 11.5 8 20t20.5 8.5h709q11 0 19.5 -8.5
t8.5 -20t-8.5 -20t-19.5 -8.5h-709q-12 0 -20 8.5t-8.5 20z" />
    <glyph glyph-name="fill-bottom" unicode="&#xe661;" horiz-adv-x="1638" 
d="M823 140l-428 488h855z" />
    <glyph glyph-name="subscription" unicode="&#xe663;" 
d="M0 783q0 47 33 80t80 33h798q47 0 80 -33t33 -80v-798q0 -46 -33.5 -79.5t-79.5 -33.5h-798q-46 0 -79.5 33.5t-33.5 79.5v798zM910 -14q0 162 -63 309.5t-169.5 254t-254 169.5t-309.5 63v-114q139 0 265 -54t217.5 -145.5t145.5 -217.5t54 -265h114zM626 -14
q0 104 -40.5 199t-109 163.5t-163.5 109t-199 40.5v-114v0q108 0 199.5 -53.5t145 -145t53.5 -199.5h114zM228 -14v0q47 0 80 33t33 80.5t-33 80.5t-80 33v0q-48 0 -81 -33t-33 -80.5t33 -80.5t81 -33z" />
    <glyph glyph-name="person" unicode="&#xe664;" 
d="M624 331q78 36 125.5 108.5t47.5 159.5q0 123 -87.5 210t-211 87t-211 -87t-87.5 -209q0 -88 47.5 -160.5t125.5 -108.5q-148 -43 -244 -169.5t-101 -289.5h941q-5 163 -101 289.5t-244 169.5z" />
    <glyph glyph-name="menu" unicode="&#xe665;" 
d="M0 783q0 47 33 80t80 33h798q47 0 80 -33t33 -80v-798q0 -46 -33.5 -79.5t-79.5 -33.5h-798q-46 0 -79.5 33.5t-33.5 79.5v798zM284 668v-113h626v113h-626zM284 441v-114h626v114h-626zM284 213v-113h626v113h-626zM171 555v0q23 0 40 16.5t17 40t-17 40t-40 16.5v0
q-24 0 -40.5 -16.5t-16.5 -40t16.5 -40t40.5 -16.5zM170.5 327q23.5 0 40.5 16.5t17 40.5t-17 40.5t-40.5 16.5t-40 -16.5t-16.5 -40.5t16.5 -40.5t40 -16.5zM171 100v0q23 0 40 16.5t17 40t-17 40t-40 16.5v0q-24 0 -40.5 -16.5t-16.5 -40t16.5 -40t40.5 -16.5z" />
    <glyph glyph-name="setting" unicode="&#xe666;" 
d="M678 341q-13 -55 -62 -94t-105 -39q-71 0 -121.5 50.5t-50.5 121.5q0 24 7 48q14 52 62.5 88.5t102.5 36.5q71 0 121.5 -50.5t50.5 -121.5q0 -20 -5 -40v0zM988 455l-125 20q-13 45 -36 86l74 103q11 10 11 25t-11 26l-55 54q-10 11 -25 11t-26 -11l-102 -74
q-41 24 -85 36l-21 129q0 15 -10.5 25.5t-25.5 10.5h-78v0q-15 0 -25.5 -10.5t-10.5 -25.5l-21 -129q-45 -12 -85 -36l-103 74q-10 11 -25 11t-25 -11l-56 -54q-10 -11 -10 -26t10 -25l75 -103q-24 -41 -36 -86l-125 -20q-15 0 -25.5 -10.5t-10.5 -25.5v-78
q0 -15 10.5 -25.5t25.5 -10.5l125 -20q12 -45 36 -86l-75 -102q-10 -11 -10 -26t10 -25l56 -55q10 -11 25 -11t25 11l103 74q41 -24 86 -36l20 -120q0 -15 10.5 -25.5t25.5 -10.5h78q15 0 25.5 10.5t10.5 25.5l19 120q46 12 87 36l102 -74q11 -11 26 -11t25 11l55 55
q11 10 11 25t-11 26l-74 102q23 40 36 86l125 20q14 0 24.5 10.5t10.5 25.5v0v78v0q0 15 -10.5 25.5t-24.5 10.5v0z" />
    <glyph glyph-name="search" unicode="&#xe66a;" 
d="M427 40v0q-116 0 -214.5 57.5t-155.5 155.5t-57 214t57 214t155.5 155.5t214.5 57.5t214 -57.5t155 -155.5t57 -214t-57 -214t-155 -155.5t-214 -57.5zM426.5 154q129.5 0 221.5 92t92 221.5t-92 221t-221.5 91.5t-221 -91.5t-91.5 -221t91.5 -221.5t221 -92zM907 -92
l-281 282l80 80l282 -281q17 -17 17 -41t-16.5 -40.5t-40.5 -16.5t-41 17z" />
    <glyph glyph-name="download" unicode="&#xe667;" horiz-adv-x="1152" 
d="M720 494h144q24 0 33 -22.5t-7 -40.5l-288 -297q-11 -11 -26 -11t-26 11l-288 297q-16 18 -7 40.5t33 22.5h144v331q0 29 21 50t50 21h146q29 0 50 -21t21 -50v-331v0zM1152 238v-294q0 -30 -21 -51t-50 -21h-1010v0q-29 0 -50 21t-21 50v1v294h144v-184q0 -15 10 -25.5
t25 -10.5h794q14 1 24.5 11.5t10.5 24.5v184h144z" />
    <glyph glyph-name="fill-close" unicode="&#xe668;" 
d="M425 384l-123 -123q-16 -18 -16 -42q0 -25 18 -43t43 -18q24 0 42 16l123 123l123 -123q18 -16 42 -16q25 0 43 18t18 43q0 24 -16 42l-123 123l123 123q16 18 16 42q0 25 -18 43t-43 18q-24 0 -42 -16l-123 -123l-123 123q-18 16 -42 16q-25 0 -43 -18t-18 -43
q0 -24 16 -42l123 -123v0zM512 -128q-139 0 -257 68.5t-186.5 186.5t-68.5 257t68.5 257t186.5 186.5t257 68.5t257 -68.5t186.5 -186.5t68.5 -257t-68.5 -257t-186.5 -186.5t-257 -68.5z" />
    <glyph glyph-name="fill-plus" unicode="&#xe669;" 
d="M451 445h-174q-26 0 -43.5 -18t-17.5 -43t17.5 -43t43.5 -18h174v-174q0 -26 18 -43.5t43 -17.5t43 17.5t18 43.5v174h174q26 0 43.5 18t17.5 43t-17.5 43t-43.5 18h-174v174q0 26 -18 43.5t-43 17.5t-43 -17.5t-18 -43.5v-174zM512 -128q-139 0 -257 68.5t-186.5 186.5
t-68.5 257t68.5 257t186.5 186.5t257 68.5t257 -68.5t186.5 -186.5t68.5 -257t-68.5 -257t-186.5 -186.5t-257 -68.5z" />
    <glyph glyph-name="close" unicode="&#xe66c;" 
d="M639 384l359 359q10 11 18 29.5t8 33.5q0 37 -26.5 63.5t-63.5 26.5q-15 0 -33.5 -7.5t-29.5 -18.5l-359 -359l-359 359q-11 10 -29.5 18t-33.5 8q-37 0 -63.5 -26.5t-26.5 -63.5q0 -15 7.5 -33.5t18.5 -29.5l359 -359l-359 -359q-10 -11 -18 -29.5t-8 -33.5
q0 -37 26.5 -63.5t63.5 -26.5q15 0 33.5 7.5t29.5 18.5l359 359l359 -359q11 -10 29.5 -18t33.5 -8q37 0 63.5 26.5t26.5 63.5q0 15 -7.5 33.5t-18.5 29.5l-359 359v0z" />
    <glyph glyph-name="plus" unicode="&#xe66d;" horiz-adv-x="1126" 
d="M527 469h-349q-36 0 -61 -25t-25 -60t25 -60t61 -25h349v-342q0 -35 25 -60t60.5 -25t60.5 25t25 60v342h333q35 0 60 25t25 60t-25 60t-60 25h-333v342q0 35 -25 60t-60.5 25t-60.5 -25t-25 -60v-342z" />
    <glyph glyph-name="circle-check" unicode="&#xe66e;" 
d="M512 -128h-1q-87 0 -193 44t-168 106t-106 168t-44 193v1v1q0 87 44 193t106 168t168 106t193 44h1h1q87 0 193 -44t168 -106t106 -168t44 -193v-1v-1q0 -87 -44 -193t-106 -168t-168 -106t-193 -44h-1v0zM512 802q-84 0 -160 -31.5t-136 -90.5q-50 -51 -86 -137
t-36 -158v-1q0 -84 31.5 -160t90.5 -136q51 -50 137 -86t158 -36h1q84 0 160 31.5t136 90.5q50 51 86 137t36 158v1q0 84 -31.5 160t-90.5 136q-51 50 -137 86t-158 36h-1v0zM420 169v0q-19 0 -33 14l-153 152q-13 14 -13 33.5t13.5 33t33 13.5t33.5 -14l119 -119l303 303
q14 14 33.5 14t33 -13.5t13.5 -33t-13 -33.5l-337 -336q-14 -14 -33 -14z" />
    <glyph glyph-name="info" unicode="&#xe66f;" 
d="M984 583q-16 38 -48.5 86t-61.5 77q-62 62 -168 106t-193 44h-1h-1q-87 0 -193 -44t-168 -106t-106 -168t-44 -193v-1v-1q0 -87 44 -193t106 -168t168 -106t193 -44h1h1q87 0 193 44t168 106t106 168t44 193v1v1q0 43 -12 101t-28 97v0zM808 88q-51 -50 -137 -86
t-158 -36h-1.5h-0.5q-72 0 -158 36t-137 86q-51 51 -86.5 137t-35.5 158v1q0 84 31.5 160.5t90.5 135.5q51 50 137 86t158 36h1q84 0 160 -31.5t136 -90.5q50 -51 86 -137t36 -158v-1q0 -84 -31.5 -160t-90.5 -136v0zM512 158v0q19 0 33 14t14 33v0v205q0 20 -14 33.5
t-33.5 13.5t-33 -13.5t-13.5 -33.5v-205q0 -19 14 -33t33 -14zM458 558q0 -22 15.5 -37.5t37.5 -15.5t37.5 15.5t15.5 37.5t-15.5 37.5t-37.5 15.5t-37.5 -15.5t-15.5 -37.5z" />
    <glyph glyph-name="circle-error" unicode="&#xe670;" 
d="M682.5 554.5q-13.5 13.5 -33 13.5t-33.5 -13l-104 -105l-104 105q-14 13 -33.5 13t-33 -13.5t-13.5 -33t13 -33.5l105 -104l-105 -104q-13 -14 -13 -33.5t13.5 -33t33 -13.5t33.5 13l104 105l104 -105q14 -13 33.5 -13t33 13.5t13.5 33t-13 33.5l-105 104l105 104
q13 14 13 33.5t-13.5 33zM984 583q-16 38 -48.5 86t-61.5 77q-62 62 -168 106t-193 44h-1h-1q-87 0 -193 -44t-168 -106t-106 -168t-44 -193v-1v-1q0 -87 44 -193t106 -168t168 -106t193 -44h1h1q87 0 193 44t168 106t106 168t44 193v1v1q0 43 -12 101t-28 97v0zM808 88
q-51 -50 -137 -86t-158 -36h-1h-1q-72 0 -158 36t-137 86q-50 51 -86 137t-36 158v1q0 84 31.5 160t90.5 136q51 50 137 86t158 36h1q84 0 160 -31.5t136 -90.5q50 -51 86 -137t36 -158v-1q0 -84 -31.5 -160t-90.5 -136v0z" />
    <glyph glyph-name="picture" unicode="&#xe671;" horiz-adv-x="1546" 
d="M862 328l-230 301q-20 27 -48.5 27t-48.5 -27l-521 -682q-20 -26 -11 -45t42 -19h1077q8 0 16 2h353q34 0 44 19.5t-8 46.5l-404 595q-18 27 -45.5 28t-47.5 -26zM865.5 733q-34.5 0 -58.5 23.5t-24 57.5t24 58t58.5 24t58.5 -24t24 -58t-24 -57.5t-58.5 -23.5z" />
    <glyph glyph-name="lock" unicode="&#xe672;" 
d="M836 497h-78v144q0 111 -80 183t-195 72t-195 -72t-80 -183v-138h-79q-28 0 -46.5 -19.5t-18.5 -45.5v-498q0 -28 20 -46.5t45 -18.5h707q29 0 47.5 20t18.5 45v491q0 30 -18 48t-48 18v0zM522 169v-111q0 -3 -1.5 -4.5t-3.5 -1.5h-1h-59q-3 0 -4.5 1.5t-2.5 3.5v1v111
q-52 21 -52 72q0 35 25.5 60.5t59.5 25.5t59.5 -25.5t25.5 -60.5q0 -23 -12.5 -42t-33.5 -30zM653 497h-340v150q0 59 50.5 101.5t119.5 42.5t119.5 -42.5t50.5 -101.5v-150v0z" />
    <glyph glyph-name="avatar" unicode="&#xe673;" 
d="M26 -126q0 3 33 116q27 95 42.5 134.5t31.5 49.5q13 9 109 42q146 50 174 81q11 12 14 48q2 27 -1 35.5t-21 31.5q-24 31 -37 66.5t-18 35.5q-13 0 -23.5 48t-0.5 54q5 3 -1 38q-5 35 2 76.5t21 61.5q14 19 25 43q21 43 61.5 55.5t113.5 -3.5q70 -14 101 0q7 3 13.5 -6.5
t11 -27t4.5 -35.5q0 -31 9.5 -59.5t6.5 -83.5t2 -58q12 -8 2 -51.5t-26 -52.5q-11 -6 -12 -16q0 -12 -13.5 -39t-30.5 -48q-16 -19 -18 -27.5t0 -34.5q4 -32 19 -50.5t52.5 -36.5t120.5 -47q8 -3 23 -8q27 -9 38.5 -12.5t28.5 -12.5t22 -12t15.5 -16.5t13 -20.5t10 -30
t11 -38.5t11.5 -51.5q5 -21 7 -32q24 -101 24 -104.5t-485.5 -3.5t-485.5 2v0z" />
    <glyph glyph-name="loading" unicode="&#xe674;" horiz-adv-x="1026" 
d="M784 -5q5 -9 5 -20q0 -9 -5.5 -19t-14.5 -15t-19 -5q-9 0 -19 6t-15 14q-5 9 -5 20q0 9 5.5 19t13.5 14q9 5 20 5q9 0 19 -5.5t15 -13.5v0zM553 -89q0 -16 -12 -27.5t-28 -11.5t-27.5 11.5t-11.5 27.5v28q0 16 11.5 27.5t27.5 11.5t28 -11.5t12 -27.5v-27v-1zM310 -44
q-4 -9 -14 -14.5t-20 -5.5t-19 5t-14.5 15t-5.5 19q0 11 5 20l29 51q5 8 15 13.5t20 5.5t20 -5q14 -8 18 -24t-4 -29zM123 114q-9 -5 -20 -5q-9 0 -19 5.5t-15 13.5q-6 10 -6 20t6 19.5t14 14.5l78 45q9 6 20 6q9 0 19 -6t15 -14q5 -9 5 -20q0 -9 -5.5 -19t-13.5 -15z
M39 345q-16 0 -27.5 11.5t-11.5 27.5t11.5 27.5t27.5 11.5h122q17 0 28.5 -11t11.5 -28v0q0 -16 -11.5 -27.5t-27.5 -11.5h-1h-122v0zM83 587q-8 4 -14 14t-6 19q0 11 6 20q5 8 15 14t19 6q11 0 20 -5l132 -77q9 -5 14.5 -15t5.5 -19q0 -10 -5 -19t-15 -14.5t-19 -5.5
q-11 0 -20 5zM242 774l93 -160q4 -8 14 -14t20 -6t20 6q8 4 13.5 14t5.5 19q0 11 -5 20l-93 160q-5 8 -15 13.5t-19 5.5q-10 0 -19 -5q-9 -4 -14.5 -14t-5.5 -20t5 -19zM474 857q0 16 11.5 27.5t27.5 11.5t28 -11.5t12 -27.5v-185q-1 -16 -12.5 -28t-27.5 -12t-27.5 12
t-11.5 28v0v185zM716 813q4 8 14 14t20 6t19 -6q9 -4 14.5 -14t5.5 -19q0 -11 -5 -20l-93 -160q-4 -8 -14.5 -14t-19.5 -6q-10 0 -20 5q-8 5 -13.5 15t-5.5 20t5 19zM904 655l-161 -93q-8 -5 -14 -15t-6 -19q0 -10 6 -20q4 -8 14.5 -13.5t19.5 -5.5q10 0 19 5l161 93
q8 4 14 14t6 19q0 11 -6 20q-4 8 -14 14t-19 6q-11 0 -20 -5zM987 423q16 0 27.5 -11.5t11.5 -27.5v0q0 -16 -11.5 -27.5t-27.5 -11.5v0h-186q-16 0 -27.5 11.5t-11.5 28t11.5 27.5t27.5 11h186z" />
    <glyph glyph-name="arrow-left" unicode="&#xe675;" 
d="M740 798q18 17 18 41t-16.5 40.5t-39.5 16.5q-25 0 -42 -18l-444 -444q-16 -16 -16 -39.5t16 -40.5l465 -465q17 -17 41 -17q23 0 40 16.5t17 40.5t-18 41l-424 424l403 404v0z" />
    <glyph glyph-name="fill-top" unicode="&#xe676;" horiz-adv-x="1790" 
d="M907 669l-470 -537h939z" />
    <glyph glyph-name="small-close" unicode="&#xe677;" 
d="M574 384l177 176q13 13 13 31.5t-13 31.5t-31.5 13t-31.5 -13l-176 -177l-176 177q-13 13 -31.5 13t-31.5 -13t-13 -31.5t13 -31.5l177 -176l-177 -176q-13 -13 -13 -31.5t13 -31.5t31.5 -13t31.5 13l176 177l176 -177q13 -13 31.5 -13t31.5 13t13 31.5t-13 31.5
l-177 176v0z" />
    <glyph glyph-name="arrow-right" unicode="&#xe678;" 
d="M277 -4q-17 -16 -17 -39q0 -22 15.5 -37.5t37.5 -15.5q23 0 39 17l416 416q15 15 15 37.5t-15 37.5l-436 436q-15 16 -38 16q-22 0 -37.5 -15.5t-15.5 -37.5q0 -23 16 -39l398 -398l-379 -378h1z" />
  </font>
</defs>
</svg>
